<?xml version="1.0" encoding="UTF-8"?>
<svg width="25px" height="25px" viewBox="0 0 25 25" version="1.1" xmlns="http://www.w3.org/2000/svg" xmlns:xlink="http://www.w3.org/1999/xlink">
    <!-- Generator: Sketch 52.1 (67048) - http://www.bohemiancoding.com/sketch -->
    <title>about-icon</title>
    <desc>Created with Sketch.</desc>
    <g id="Page-1" stroke="none" stroke-width="1" fill="none" fill-rule="evenodd">
        <g id="Artboard-2" transform="translate(-136.000000, -328.000000)" fill="#40C66F">
            <g id="about-icon" transform="translate(136.000000, 328.000000)">
                <path d="M6.409713,-2.58960077e-16 L18.590287,2.58960077e-16 C20.8190838,-1.50463262e-16 21.6272994,0.232064028 22.4421143,0.667831759 C23.2569291,1.10359949 23.8964005,1.74307093 24.3321682,2.55788574 C24.767936,3.37270056 25,4.18091615 25,6.409713 L25,18.590287 C25,20.8190838 24.767936,21.6272994 24.3321682,22.4421143 C23.8964005,23.2569291 23.2569291,23.8964005 22.4421143,24.3321682 C21.6272994,24.767936 20.8190838,25 18.590287,25 L6.409713,25 C4.18091615,25 3.37270056,24.767936 2.55788574,24.3321682 C1.74307093,23.8964005 1.10359949,23.2569291 0.667831759,22.4421143 C0.232064028,21.6272994 1.00308841e-16,20.8190838 -1.72640051e-16,18.590287 L1.72640051e-16,6.409713 C-1.00308841e-16,4.18091615 0.232064028,3.37270056 0.667831759,2.55788574 C1.10359949,1.74307093 1.74307093,1.10359949 2.55788574,0.667831759 C3.37270056,0.232064028 4.18091615,1.50463262e-16 6.409713,-2.58960077e-16 Z" id="base" opacity="0.15"></path>
                <path d="M12.5003545,13 C15.745996,13 17.5760913,14.7753452 17.9906405,18.3260357 L17.9906437,18.3260353 C18.0867117,19.1488751 17.4975467,19.8937971 16.6747068,19.9898651 C16.6169697,19.996606 16.5588896,19.999985 16.5007604,19.999985 L8.49975249,19.9999835 C7.67132615,19.9999835 6.99975391,19.3284113 6.99975391,18.499985 C6.99975391,18.4418354 7.00313528,18.3837351 7.00988089,18.3259782 C7.42457268,14.7753261 9.25473056,13 12.5003545,13 Z" id="body" opacity="0.5"></path>
                <circle id="head" cx="12.5" cy="8.5" r="2.5"></circle>
            </g>
        </g>
    </g>
</svg>