<?xml version="1.0" encoding="UTF-8"?>
<svg width="25px" height="25px" viewBox="0 0 25 25" version="1.1" xmlns="http://www.w3.org/2000/svg" xmlns:xlink="http://www.w3.org/1999/xlink">
    <!-- Generator: Sketch 52.1 (67048) - http://www.bohemiancoding.com/sketch -->
    <title>blog-icon</title>
    <desc>Created with Sketch.</desc>
    <g id="Page-1" stroke="none" stroke-width="1" fill="none" fill-rule="evenodd">
        <g id="Artboard-2" transform="translate(-171.000000, -328.000000)" fill="#40C66F">
            <g id="blog-icon" transform="translate(171.000000, 328.000000)">
                <path d="M6.409713,-2.58960077e-16 L18.590287,2.58960077e-16 C20.8190838,-1.50463262e-16 21.6272994,0.232064028 22.4421143,0.667831759 C23.2569291,1.10359949 23.8964005,1.74307093 24.3321682,2.55788574 C24.767936,3.37270056 25,4.18091615 25,6.409713 L25,18.590287 C25,20.8190838 24.767936,21.6272994 24.3321682,22.4421143 C23.8964005,23.2569291 23.2569291,23.8964005 22.4421143,24.3321682 C21.6272994,24.767936 20.8190838,25 18.590287,25 L6.409713,25 C4.18091615,25 3.37270056,24.767936 2.55788574,24.3321682 C1.74307093,23.8964005 1.10359949,23.2569291 0.667831759,22.4421143 C0.232064028,21.6272994 1.00308841e-16,20.8190838 -1.72640051e-16,18.590287 L1.72640051e-16,6.409713 C-1.00308841e-16,4.18091615 0.232064028,3.37270056 0.667831759,2.55788574 C1.10359949,1.74307093 1.74307093,1.10359949 2.55788574,0.667831759 C3.37270056,0.232064028 4.18091615,1.50463262e-16 6.409713,-2.58960077e-16 Z" id="base" opacity="0.147644928"></path>
                <g id="text" transform="translate(5.000000, 8.000000)">
                    <path d="M12,8 L14,8 C14.5522847,8 15,8.44771525 15,9 L15,9 C15,9.55228475 14.5522847,10 14,10 L12,10 C11.4477153,10 11,9.55228475 11,9 L11,9 C11,8.44771525 11.4477153,8 12,8 Z" id="text-4" opacity="0.49682971"></path>
                    <path d="M1,8 L8,8 C8.55228475,8 9,8.44771525 9,9 L9,9 C9,9.55228475 8.55228475,10 8,10 L1,10 C0.44771525,10 6.76353751e-17,9.55228475 0,9 L0,9 C-6.76353751e-17,8.44771525 0.44771525,8 1,8 Z" id="text-3" opacity="0.49682971"></path>
                    <path d="M7,4 L14,4 C14.5522847,4 15,4.44771525 15,5 L15,5 C15,5.55228475 14.5522847,6 14,6 L7,6 C6.44771525,6 6,5.55228475 6,5 L6,5 C6,4.44771525 6.44771525,4 7,4 Z" id="text-2" opacity="0.501981431"></path>
                    <path d="M1,4 L3,4 C3.55228475,4 4,4.44771525 4,5 L4,5 C4,5.55228475 3.55228475,6 3,6 L1,6 C0.44771525,6 6.76353751e-17,5.55228475 0,5 L0,5 C-6.76353751e-17,4.44771525 0.44771525,4 1,4 Z" id="text-1" opacity="0.501981431"></path>
                    <path d="M1,0 L10,0 C10.5522847,-1.01453063e-16 11,0.44771525 11,1 L11,1 C11,1.55228475 10.5522847,2 10,2 L1,2 C0.44771525,2 6.76353751e-17,1.55228475 0,1 L0,1 C-6.76353751e-17,0.44771525 0.44771525,1.01453063e-16 1,0 Z" id="title"></path>
                </g>
            </g>
        </g>
    </g>
</svg>