<?xml version="1.0" encoding="UTF-8"?>
<svg width="25px" height="25px" viewBox="0 0 25 25" version="1.1" xmlns="http://www.w3.org/2000/svg" xmlns:xlink="http://www.w3.org/1999/xlink">
    <!-- Generator: Sketch 52.1 (67048) - http://www.bohemiancoding.com/sketch -->
    <title>nav-link</title>
    <desc>Created with Sketch.</desc>
    <g id="Page-1" stroke="none" stroke-width="1" fill="none" fill-rule="evenodd">
        <g id="Artboard-2" transform="translate(-238.000000, -328.000000)">
            <g id="nav-link" transform="translate(238.000000, 328.000000)">
                <g id="project-icon">
                    <path d="M6.409713,-2.58960077e-16 L18.590287,2.58960077e-16 C20.8190838,-1.50463262e-16 21.6272994,0.232064028 22.4421143,0.667831759 C23.2569291,1.10359949 23.8964005,1.74307093 24.3321682,2.55788574 C24.767936,3.37270056 25,4.18091615 25,6.409713 L25,18.590287 C25,20.8190838 24.767936,21.6272994 24.3321682,22.4421143 C23.8964005,23.2569291 23.2569291,23.8964005 22.4421143,24.3321682 C21.6272994,24.767936 20.8190838,25 18.590287,25 L6.409713,25 C4.18091615,25 3.37270056,24.767936 2.55788574,24.3321682 C1.74307093,23.8964005 1.10359949,23.2569291 0.667831759,22.4421143 C0.232064028,21.6272994 1.00308841e-16,20.8190838 -1.72640051e-16,18.590287 L1.72640051e-16,6.409713 C-1.00308841e-16,4.18091615 0.232064028,3.37270056 0.667831759,2.55788574 C1.10359949,1.74307093 1.74307093,1.10359949 2.55788574,0.667831759 C3.37270056,0.232064028 4.18091615,1.50463262e-16 6.409713,-2.58960077e-16 Z" id="base" fill="#40C66F" opacity="0.15"></path>
                    <path d="M8,7 L10.316529,7 C10.9063451,7 11.4660865,7.26034471 11.8460972,7.71142666 L12.3472215,8.30627353 C12.7272321,8.75735548 13.2869736,9.0177002 13.8767897,9.0177002 L17,9.0177002 C18.1045695,9.0177002 19,9.9131307 19,11.0177002 L19,16 C19,17.1045695 18.1045695,18 17,18 L8,18 C6.8954305,18 6,17.1045695 6,16 L6,9 C6,7.8954305 6.8954305,7 8,7 Z" id="folder-back" fill="#40C66F" fill-rule="nonzero"></path>
                    <path d="M11.2917075,11.0061035 L18.3699554,11.0061035 C19.4745249,11.0061035 20.3699554,11.901534 20.3699554,13.0061035 C20.3699554,13.1469478 20.3550777,13.2873981 20.3255699,13.4251167 L19.5147203,17.2095066 C19.4159282,17.6705881 19.0084594,18 18.536913,18 L8.16849816,18 L9.33667304,12.5843924 C9.53531122,11.6635144 10.3496495,11.0061035 11.2917075,11.0061035 Z" id="folder-front" fill="#91DEAC" fill-rule="nonzero"></path>
                </g>
            </g>
        </g>
    </g>
</svg>