<?xml version="1.0" encoding="UTF-8"?>
<svg width="25px" height="25px" viewBox="0 0 25 25" version="1.1" xmlns="http://www.w3.org/2000/svg" xmlns:xlink="http://www.w3.org/1999/xlink">
    <!-- Generator: Sketch 52.1 (67048) - http://www.bohemiancoding.com/sketch -->
    <title>star-icon</title>
    <desc>Created with Sketch.</desc>
    <g id="Page-1" stroke="none" stroke-width="1" fill="none" fill-rule="evenodd">
        <g id="Artboard-2" transform="translate(-205.000000, -328.000000)" fill="#40C66F">
            <g id="star-icon" transform="translate(205.000000, 328.000000)">
                <path d="M6.409713,-2.58960077e-16 L18.590287,2.58960077e-16 C20.8190838,-1.50463262e-16 21.6272994,0.232064028 22.4421143,0.667831759 C23.2569291,1.10359949 23.8964005,1.74307093 24.3321682,2.55788574 C24.767936,3.37270056 25,4.18091615 25,6.409713 L25,18.590287 C25,20.8190838 24.767936,21.6272994 24.3321682,22.4421143 C23.8964005,23.2569291 23.2569291,23.8964005 22.4421143,24.3321682 C21.6272994,24.767936 20.8190838,25 18.590287,25 L6.409713,25 C4.18091615,25 3.37270056,24.767936 2.55788574,24.3321682 C1.74307093,23.8964005 1.10359949,23.2569291 0.667831759,22.4421143 C0.232064028,21.6272994 1.00308841e-16,20.8190838 -1.72640051e-16,18.590287 L1.72640051e-16,6.409713 C-1.00308841e-16,4.18091615 0.232064028,3.37270056 0.667831759,2.55788574 C1.10359949,1.74307093 1.74307093,1.10359949 2.55788574,0.667831759 C3.37270056,0.232064028 4.18091615,1.50463262e-16 6.409713,-2.58960077e-16 Z" id="base" opacity="0.15"></path>
                <path d="M12.4999101,17.7572084 L9.51129296,18.8671844 C8.99356266,19.05947 8.41798099,18.795645 8.22569533,18.2779147 C8.18123431,18.1582031 8.16011387,18.0310836 8.16347552,17.9034265 L8.25220541,14.5339453 L6.25602134,11.8242715 C5.92845098,11.3796187 6.02336504,10.7536081 6.46801784,10.4260378 C6.55847276,10.3594007 6.65951045,10.3084833 6.76688685,10.2754242 L9.87468423,9.31859603 L11.6638385,6.59200866 C11.9668331,6.13025904 12.5867808,6.00156268 13.0485304,6.30455729 C13.163018,6.37968268 13.2608564,6.47752108 13.3359817,6.59200866 L15.125136,9.31859603 L18.2329334,10.2754242 C18.7607677,10.4379338 19.0569219,10.9975681 18.8944124,11.5254024 C18.8613533,11.6327788 18.8104359,11.7338165 18.7437989,11.8242715 L16.7476148,14.5339453 L16.8363447,17.9034265 C16.8508832,18.4555198 16.4151089,18.9148657 15.8630155,18.9294042 C15.7353584,18.9327658 15.6082388,18.9116454 15.4885272,18.8671844 L12.4999101,17.7572084 Z" id="star"></path>
            </g>
        </g>
    </g>
</svg>